<svg xmlns="http://www.w3.org/2000/svg" xmlns:svg="http://www.w3.org/2000/svg" id="svg9" width="40" height="40" version="1.1" viewBox="0 0 40 40"><metadata id="metadata15"/><g id="HeapViewerPluginIcon" transform="matrix(1.2468997,0,0,1.2468997,-4.933383,-4.9342478)" style="fill:none;fill-rule:evenodd;stroke:none;stroke-width:1"><path id="Fill-2" d="m 20,13 c -1.103,0 -2,-0.897 -2,-2 0,-1.103 0.897,-2 2,-2 1.103,0 2,0.897 2,2 0,1.103 -0.897,2 -2,2 m 0,-6 c -2.209,0 -4,1.791 -4,4 0,2.209 1.791,4 4,4 2.209,0 4,-1.791 4,-4 0,-2.209 -1.791,-4 -4,-4" style="fill:#f26522"/><path id="Fill-4" d="m 14,22 c -1.103,0 -2,-0.897 -2,-2 0,-1.103 0.897,-2 2,-2 1.103,0 2,0.897 2,2 0,1.103 -0.897,2 -2,2 m 3.367,-5.247 0.751,-1.127 C 17.49,15.369 16.924,14.992 16.453,14.518 l -0.748,1.122 c -0.223,0.335 -0.626,0.503 -1.021,0.427 C 14.462,16.024 14.234,16 14,16 c -2.209,0 -4,1.791 -4,4 0,2.209 1.791,4 4,4 2.209,0 4,-1.791 4,-4 0,-0.794 -0.238,-1.528 -0.64,-2.147 -0.217,-0.335 -0.215,-0.768 0.007,-1.1" style="fill:#f98b9e"/><path id="Fill-6" d="m 26,22 c -1.103,0 -2,-0.897 -2,-2 0,-1.103 0.897,-2 2,-2 1.103,0 2,0.897 2,2 0,1.103 -0.897,2 -2,2 m 0,-6 c -0.234,0 -0.462,0.024 -0.684,0.067 -0.395,0.076 -0.798,-0.092 -1.021,-0.427 l -0.748,-1.122 c -0.471,0.474 -1.037,0.851 -1.665,1.108 l 0.751,1.127 c 0.222,0.332 0.224,0.765 0.007,1.1 C 22.238,18.472 22,19.206 22,20 c 0,2.209 1.791,4 4,4 2.209,0 4,-1.791 4,-4 0,-2.209 -1.791,-4 -4,-4" style="fill:#b99bf8"/><path id="Fill-8" d="m 8,31 c -1.103,0 -2,-0.897 -2,-2 0,-1.103 0.897,-2 2,-2 1.103,0 2,0.897 2,2 0,1.103 -0.897,2 -2,2 m 3.367,-5.247 0.751,-1.127 C 11.49,24.369 10.924,23.992 10.453,23.518 L 9.705,24.64 C 9.482,24.975 9.079,25.143 8.684,25.067 8.462,25.024 8.234,25 8,25 c -2.209,0 -4,1.791 -4,4 0,2.209 1.791,4 4,4 2.209,0 4,-1.791 4,-4 0,-0.794 -0.238,-1.528 -0.64,-2.147 -0.217,-0.335 -0.215,-0.768 0.007,-1.1" style="fill:#62b543"/><path id="Fill-10" d="m 20,31 c -1.103,0 -2,-0.897 -2,-2 0,-1.103 0.897,-2 2,-2 1.103,0 2,0.897 2,2 0,1.103 -0.897,2 -2,2 m 0,-6 c -0.234,0 -0.462,0.024 -0.684,0.067 -0.395,0.076 -0.798,-0.092 -1.021,-0.427 l -0.748,-1.122 c -0.471,0.474 -1.037,0.851 -1.665,1.108 l 0.751,1.127 c 0.222,0.332 0.224,0.765 0.007,1.1 C 16.238,27.472 16,28.206 16,29 c 0,2.209 1.791,4 4,4 2.209,0 4,-1.791 4,-4 0,-2.209 -1.791,-4 -4,-4" style="fill:#40b6e0"/><path id="Fill-12" d="m 32,31 c -1.103,0 -2,-0.897 -2,-2 0,-1.103 0.897,-2 2,-2 1.103,0 2,0.897 2,2 0,1.103 -0.897,2 -2,2 m 0,-6 c -0.234,0 -0.462,0.024 -0.684,0.067 -0.395,0.076 -0.798,-0.092 -1.021,-0.427 l -0.748,-1.122 c -0.471,0.474 -1.037,0.851 -1.665,1.108 l 0.751,1.127 c 0.222,0.332 0.224,0.765 0.007,1.1 C 28.238,27.472 28,28.206 28,29 c 0,2.209 1.791,4 4,4 2.209,0 4,-1.791 4,-4 0,-2.209 -1.791,-4 -4,-4" style="fill:#f4af3d"/></g></svg>